<svg width="63" height="56" viewBox="0 0 63 56" fill="none" xmlns="http://www.w3.org/2000/svg">
<path d="M61.7772 14.7285C60.0614 2.74719 45.6325 -3.52314 35.6487 3.36539C33.9539 4.53451 32.503 6.05688 30.8545 7.48674C30.7788 7.39001 30.6106 7.18394 30.4466 6.97788C27.3934 3.23502 23.4697 0.964076 18.6671 0.627639C9.63378 -0.00317895 4.54938 4.79104 1.3995 11.0782C0.512146 12.8571 0.163093 14.7874 0.0915999 16.785C-0.0892347 21.9072 0.911664 26.6804 4.13304 30.8144C5.39888 32.4335 6.63529 34.0778 7.96001 35.6423C14.4869 43.3467 22.2459 49.6422 30.5517 55.3154C31.0227 55.635 31.3381 55.5257 31.7292 55.2271C35.2156 52.5734 38.7986 50.0417 42.1798 47.2661C48.0548 42.4593 53.4126 37.1268 57.925 30.9826C61.5291 26.0875 62.6183 20.6078 61.7772 14.7285Z" fill="#F3D4BD"/>
</svg>
