<svg width="43" height="61" viewBox="0 0 43 61" fill="none" xmlns="http://www.w3.org/2000/svg">
<path d="M0.394531 0.592773V9.52353H42.6065V0.592773H0.394531ZM10.0933 7.17866C8.90026 7.17866 7.93554 6.23059 7.93554 5.05815C7.93554 3.88572 8.90026 2.93764 10.0933 2.93764C11.2863 2.93764 12.251 3.88572 12.251 5.05815C12.251 6.23059 11.2863 7.17866 10.0933 7.17866ZM32.9519 7.17866C31.7589 7.17866 30.7942 6.23059 30.7942 5.05815C30.7942 3.88572 31.7589 2.93764 32.9519 2.93764C34.145 2.93764 35.1097 3.88572 35.1097 5.05815C35.1097 6.23059 34.145 7.17866 32.9519 7.17866Z" fill="#F3D4BD"/>
<path d="M21.4771 37.5029C18.4651 37.5029 16.2559 39.9925 16.2559 42.9526C16.2559 46.0284 18.4651 48.4022 21.4771 48.4022C24.5701 48.4022 26.7794 45.9922 26.7794 42.9526C26.7794 39.9853 24.5701 37.5029 21.4771 37.5029Z" fill="#F3D4BD"/>
<path d="M0.394531 13.2285V60.3068H42.6065V13.2285H0.394531ZM21.4416 52.1432C16.3013 52.1432 12.2068 48.1989 12.2068 42.9446C12.2068 41.0485 12.7665 39.4346 13.7312 37.7338L21.3606 23.9975H25.9412L19.954 34.1441L20.197 34.3396C20.6757 34.1441 21.3606 34.0211 22.1265 34.0211C26.9427 34.0211 30.8016 37.77 30.8016 42.9446C30.8016 48.1193 26.6187 52.1432 21.4416 52.1432Z" fill="#F3D4BD"/>
</svg>
