<svg width="13" height="11" viewBox="0 0 13 11" fill="none" xmlns="http://www.w3.org/2000/svg">
<path d="M12.2061 2.98151C11.8929 0.795028 9.2598 -0.34925 7.43786 0.907844C7.12858 1.1212 6.86381 1.39902 6.56296 1.65995C6.54915 1.6423 6.51845 1.60469 6.48852 1.56709C5.93135 0.884053 5.21531 0.469626 4.33887 0.40823C2.69038 0.293111 1.76252 1.16801 1.1877 2.31536C1.02576 2.63999 0.962066 2.99226 0.949019 3.3568C0.916018 4.29156 1.09867 5.16262 1.68654 5.91703C1.91755 6.2125 2.14318 6.51258 2.38493 6.79807C3.57602 8.20405 4.99198 9.35293 6.50771 10.3882C6.59366 10.4466 6.65122 10.4266 6.72259 10.3721C7.35881 9.88785 8.01269 9.42584 8.62972 8.91932C9.70186 8.04212 10.6796 7.06898 11.5031 5.94773C12.1608 5.05441 12.3596 4.05441 12.2061 2.98151Z" fill="#F3D4BD"/>
</svg>
