<svg width="23" height="23" viewBox="0 0 23 23" fill="none" xmlns="http://www.w3.org/2000/svg">
<path d="M23 20.8438C23 22.0346 22.0346 23 20.8438 23H2.15625C0.965371 23 0 22.0346 0 20.8438V9.0169C3.97206e-06 8.68993 0.0743678 8.36725 0.217466 8.07325C0.360564 7.77926 0.568649 7.52166 0.825978 7.31994C1.94512 6.44266 2.86997 5.73127 8.20215 1.86143C8.95796 1.31038 10.4577 -0.0155809 11.5 0.000141744C12.5421 -0.0157606 14.0424 1.3106 14.7978 1.86139C20.1295 5.73083 21.0556 6.4432 22.174 7.31994C22.4314 7.52166 22.6394 7.77926 22.7825 8.07325C22.9256 8.36725 23 8.68993 23 9.0169V20.8438ZM20.0502 12.0119C19.935 11.8444 19.7043 11.8055 19.5408 11.9262C18.5146 12.6842 17.0493 13.7548 14.7978 15.3888C14.042 15.9398 12.5423 17.2656 11.5 17.2499C10.4573 17.2653 8.95926 15.9407 8.20215 15.3888C5.95094 13.7549 4.48558 12.6843 3.45921 11.9262C3.29574 11.8055 3.06497 11.8444 2.94984 12.0119L2.54231 12.6047C2.48949 12.6815 2.46857 12.7758 2.48399 12.8677C2.4994 12.9596 2.54994 13.042 2.62492 13.0973C3.65305 13.8565 5.11602 14.9252 7.35533 16.5504C8.26607 17.2144 9.89449 18.6982 11.5 18.6875C13.1048 18.6983 14.7326 17.2153 15.6446 16.5504C17.884 14.9252 19.347 13.8564 20.375 13.0973C20.45 13.042 20.5006 12.9596 20.516 12.8677C20.5314 12.7758 20.5105 12.6815 20.4576 12.6047L20.0502 12.0119Z" fill="white"/>
</svg>
