<svg width="23" height="23" viewBox="0 0 23 23" fill="none" xmlns="http://www.w3.org/2000/svg">
<path d="M4.61198 9.94271C6.48872 13.6562 9.30382 16.4714 13.0573 18.388L15.8724 15.5729C16.2318 15.1736 16.671 15.0738 17.1901 15.2734C18.6276 15.7526 20.145 15.9922 21.7422 15.9922C22.0616 15.9922 22.3511 16.112 22.6107 16.3516C22.8702 16.5911 23 16.8906 23 17.25V21.7422C23 22.0616 22.8702 22.3511 22.6107 22.6107C22.3511 22.8702 22.0616 23 21.7422 23C17.7891 23 14.1454 22.0317 10.8112 20.0951C7.477 18.1584 4.84158 15.523 2.90495 12.1888C0.968316 8.8546 0 5.21094 0 1.25781C0 0.938368 0.129774 0.648872 0.389323 0.389323C0.648872 0.129774 0.938368 0 1.25781 0H5.75C6.10938 0 6.40885 0.129774 6.64844 0.389323C6.88802 0.648872 7.00781 0.938368 7.00781 1.25781C7.00781 2.85503 7.2474 4.3724 7.72656 5.8099C7.88628 6.32899 7.78646 6.76823 7.42708 7.1276L4.61198 9.94271Z" fill="white"/>
</svg>
