<svg width="141" height="33" viewBox="0 0 141 33" fill="none" xmlns="http://www.w3.org/2000/svg">
<g clip-path="url(#clip0)">
<path d="M20.3347 13.5173C18.1327 13.5173 16.3629 14.2928 15.0195 15.8494C15.0078 15.8716 14.9903 15.8882 14.9727 15.9048C14.9202 15.9547 14.8501 15.9824 14.7683 15.9824C14.6865 15.9824 14.6164 15.9491 14.558 15.8993C14.558 15.8993 14.5522 15.8993 14.5522 15.8937C14.5347 15.8716 14.5171 15.8494 14.4996 15.8273C13.2789 14.2817 11.6726 13.5117 9.67498 13.5117C8.71706 13.5117 7.91685 13.6613 7.28019 13.9715C6.76034 14.2263 6.14704 14.6916 5.44029 15.3619C5.43445 15.3675 5.42276 15.373 5.41692 15.3841C5.38772 15.4118 5.34683 15.4229 5.3001 15.4229C5.25338 15.4229 5.21249 15.4007 5.17744 15.373V15.3675C5.16576 15.3564 5.15408 15.3453 5.14824 15.3287C5.1424 15.3176 5.13656 15.301 5.13072 15.2844V15.229V14.2097C5.10151 14.11 5.01974 14.0269 4.90876 14.0103H0.966115C0.837614 14.038 0.75 14.1543 0.75 14.2817V31.6981C0.75 31.8533 0.878501 31.9807 1.04789 31.9807H4.84451C4.98469 31.9807 5.09567 31.8976 5.13072 31.7702V22.7019C5.13072 20.8184 5.41108 19.4391 5.97181 18.5694C6.53255 17.6996 7.43205 17.262 8.67034 17.262C10.6154 17.262 11.585 18.8574 11.585 22.0537V31.6981C11.585 31.8533 11.7135 31.9807 11.8829 31.9807H15.6853C15.8255 31.9807 15.9306 31.8976 15.9715 31.7702V22.7019C15.9715 20.7963 16.2519 19.4169 16.8009 18.5527C17.3558 17.6886 18.232 17.262 19.4411 17.262C20.4807 17.262 21.2226 17.6221 21.6723 18.3478C22.1162 19.0624 22.3382 20.2811 22.3382 21.9984V31.7535C22.3674 31.881 22.4784 31.9807 22.6302 31.9807H26.4385C26.5787 31.9807 26.6838 31.8976 26.7247 31.7702C26.7247 31.748 26.7306 31.7258 26.7306 31.6981V20.8738C26.7306 15.9658 24.5986 13.5173 20.3347 13.5173Z" fill="white"/>
<path d="M64.6917 21.9919C64.4873 21.7537 64.5107 21.377 64.7443 21.161L72.1156 14.4027C72.3492 14.1867 72.2733 14.0094 71.9462 14.0094H67.2559C66.9288 14.0094 66.4732 14.1867 66.2454 14.4027L60.9243 19.4216C60.6965 19.6376 60.5038 19.5656 60.5038 19.2554V1.39023C60.5038 1.08002 60.2351 0.825195 59.9138 0.825195H56.7188C56.3918 0.825195 56.1289 1.08002 56.1289 1.39023V31.4203C56.1289 31.7305 56.3976 31.9853 56.7188 31.9853H59.9138C60.2409 31.9853 60.5038 31.7305 60.5038 31.4203V25.6203C60.5038 25.3101 60.6615 24.9113 60.8542 24.7285C61.047 24.5457 61.3682 24.5955 61.5668 24.8393L67.0924 31.5366C67.291 31.7803 67.7232 31.9798 68.0503 31.9798H72.5478C72.8749 31.9798 72.9742 31.7803 72.7698 31.5421L64.6917 21.9919Z" fill="white"/>
<path d="M79.7537 14.0098H76.5587C76.2316 14.0098 75.9688 14.2646 75.9688 14.5748V31.4151C75.9688 31.7253 76.2374 31.9802 76.5587 31.9802H79.7537C80.0808 31.9802 80.3495 31.7253 80.3495 31.4151V14.5748C80.3495 14.2646 80.0808 14.0098 79.7537 14.0098Z" fill="white"/>
<path d="M117.085 14.01H114.871C114.544 14.01 114.275 13.7552 114.275 13.4506V7.99407C114.275 7.68385 114.007 7.43457 113.679 7.43457H110.49C110.163 7.43457 109.894 7.68939 109.894 7.99407V13.4506C109.894 13.7608 109.626 14.01 109.305 14.01H108.615C108.288 14.01 108.025 14.2649 108.025 14.5751V17.3227C108.025 17.6329 108.294 17.8822 108.615 17.8822H109.305C109.632 17.8822 109.894 18.137 109.894 18.4417V31.4154C109.894 31.7256 110.163 31.9804 110.49 31.9804H113.679C114.007 31.9804 114.275 31.7256 114.275 31.4154V18.4472C114.275 18.137 114.544 17.8878 114.871 17.8878H117.085C117.412 17.8878 117.68 17.6329 117.68 17.3283V14.5806C117.68 14.2649 117.412 14.01 117.085 14.01Z" fill="white"/>
<path d="M134.087 27.3545C134.057 27.3877 134.022 27.4099 133.987 27.4376C132.994 28.3405 131.703 28.7892 130.132 28.7892C128.514 28.7892 127.2 28.3128 126.178 27.3545C126.172 27.3545 126.172 27.3489 126.172 27.3489C124.893 26.2964 124.081 24.7398 124.081 23.0059C124.081 20.9673 125.208 19.167 126.902 18.1532C127.013 18.0812 127.13 18.0147 127.247 17.9483C127.913 17.5716 128.666 17.3555 129.519 17.2835C129.729 17.2669 129.934 17.2558 130.144 17.2558C130.348 17.2558 130.559 17.2669 130.769 17.2835C131.814 17.3666 132.72 17.6768 133.485 18.2031C133.502 18.2142 133.52 18.2252 133.538 18.2363C135.15 19.2667 136.213 21.0172 136.213 22.9948C136.201 24.7453 135.377 26.3019 134.087 27.3545ZM137.322 16.2642C135.348 14.4306 132.953 13.5166 130.126 13.5166C127.311 13.5166 124.922 14.4251 122.965 16.2421C121.009 18.0646 120.033 20.2693 120.033 22.8619C120.033 25.6206 120.991 27.9084 122.907 29.7254C124.829 31.5701 127.206 32.4896 130.045 32.4896C132.907 32.4896 135.325 31.5922 137.299 29.7808C139.256 27.9583 140.231 25.7037 140.231 23.017C140.243 20.3414 139.268 18.0978 137.322 16.2642Z" fill="white"/>
<path d="M40.1948 28.2789C37.1224 28.2789 34.6342 25.9191 34.6342 23.0052C34.6342 20.0914 37.1283 17.7316 40.1948 17.7316C43.2671 17.7316 45.7554 20.097 45.7554 23.0052C45.7554 25.9191 43.2671 28.2789 40.1948 28.2789ZM52.9222 28.855L50.3171 27.0103C50.2938 26.9993 50.2704 26.9826 50.2529 26.966C49.9842 26.7832 49.7447 26.5007 49.9667 25.631C50.2062 24.8111 50.3171 23.9414 50.3171 23.0163C50.3171 20.3462 49.3417 18.0972 47.3967 16.2691C45.4283 14.4355 43.0335 13.5215 40.2006 13.5215C37.3911 13.5215 35.0021 14.43 33.0454 16.247C31.0887 18.0695 30.1074 20.2742 30.1074 22.8667C30.1074 25.6255 31.0712 27.9133 32.987 29.7303C34.9087 31.575 37.2801 32.4945 40.1188 32.4945C42.6129 32.4945 44.7682 31.8132 46.5848 30.4449C46.6081 30.4227 46.6373 30.4006 46.6607 30.3895C46.8359 30.2842 47.0345 30.2233 47.2506 30.2233C47.4259 30.2233 47.6011 30.2621 47.7471 30.3396C47.8523 30.3839 50.3171 32.1622 50.3171 32.1622C50.58 32.3505 50.948 32.2951 51.1466 32.0514L53.0332 29.6583C53.2435 29.3979 53.1909 29.0434 52.9222 28.855Z" fill="white"/>
<path d="M93.8666 28.2796C90.7943 28.2796 88.306 25.9197 88.306 23.0059C88.306 20.0921 90.7943 17.7322 93.8666 17.7322C96.939 17.7322 99.4272 20.0976 99.4272 23.0059C99.4272 25.9197 96.939 28.2796 93.8666 28.2796ZM106.594 28.8557L105.765 28.2685L103.989 27.011C103.971 26.9999 103.954 26.9888 103.936 26.9722C103.931 26.9667 103.925 26.9667 103.925 26.9611C103.714 26.8171 103.522 26.6066 103.563 26.0914C103.574 25.9585 103.598 25.8089 103.644 25.6261C103.878 24.8063 103.995 23.9365 103.995 23.0114C103.995 21.3939 103.633 19.9314 102.92 18.6241C102.453 17.771 101.84 16.9844 101.074 16.2642C99.106 14.4306 96.7112 13.5166 93.8783 13.5166C91.0688 13.5166 88.6799 14.4251 86.7232 16.2421C84.7664 18.0646 83.7852 20.2693 83.7852 22.8619C83.7852 23.7704 83.8903 24.6234 84.1006 25.4267C84.4452 26.7562 85.0702 27.9527 85.9755 29.0053C86.1916 29.2545 86.4194 29.4927 86.6647 29.7254C87.7862 30.8056 89.0654 31.5645 90.5023 32.0077C91.5244 32.3235 92.6225 32.4896 93.8024 32.4896C96.2965 32.4896 98.4518 31.8083 100.268 30.44C100.28 30.4289 100.292 30.4178 100.309 30.4068H100.315C100.327 30.3957 100.338 30.3901 100.35 30.3846C100.362 30.3791 100.373 30.3735 100.385 30.3624C100.549 30.2683 100.736 30.2129 100.934 30.2129C101.109 30.2129 101.285 30.2517 101.431 30.3292C101.442 30.3347 101.483 30.3624 101.542 30.4012C102.032 30.7336 104.007 32.1517 104.007 32.1517C104.036 32.1739 104.071 32.1905 104.106 32.2071C104.252 32.2736 104.41 32.2791 104.556 32.2293C104.62 32.2071 104.684 32.1739 104.742 32.1296C104.748 32.124 104.754 32.124 104.754 32.1185L104.76 32.113C104.789 32.0908 104.813 32.0631 104.836 32.0354L105.654 30.994L106.723 29.6368C106.758 29.5924 106.781 29.5481 106.799 29.4983C106.886 29.2822 106.816 29.0108 106.594 28.8557Z" fill="white"/>
<path d="M78.1592 6.79102C76.6172 6.79102 75.3672 7.97648 75.3672 9.43893C75.3672 10.9014 76.6172 12.0813 78.1592 12.0813C79.7012 12.0813 80.9453 10.8958 80.9453 9.43893C80.9453 7.97648 79.7012 6.79102 78.1592 6.79102Z" fill="white"/>
</g>
<defs>
<clipPath id="clip0">
<rect width="139.494" height="31.6642" fill="white" transform="translate(0.751953 0.824219)"/>
</clipPath>
</defs>
</svg>
